<?xml version="1.0" encoding="iso-8859-1"?>
<!-- Generator: Adobe Illustrator 19.0.0, SVG Export Plug-In . SVG Version: 6.00 Build 0)  -->
<svg version="1.1" id="Capa_1" xmlns="http://www.w3.org/2000/svg" xmlns:xlink="http://www.w3.org/1999/xlink" x="0px" y="0px"
	 viewBox="0 0 448 448" style="enable-background:new 0 0 448 448;" xml:space="preserve">
<g>
	<g>
		<path d="M304,0H144c-8.832,0-16,7.168-16,16v64c0,37.856,12.416,71.728,32,95.152V432c0,8.832,7.168,16,16,16h96
			c8.832,0,16-7.168,16-16V175.152c19.584-23.424,32-57.312,32-95.152V16C320,7.168,312.832,0,304,0z M272,432h-96v-32h96V432z
			 M272,169.344V384h-96V169.344c-19.504-23.328-32-51.168-32-89.344h160C304,117.984,291.616,145.872,272,169.344z M304,64H144V16
			h160V64z"/>
	</g>
</g>
<g>
	<g>
		<path d="M224,176c-17.648,0-32,14.336-32,32s14.352,32,32,32s32-14.336,32-32S241.648,176,224,176z M224,224
			c-8.816,0-16-7.168-16-16c0-8.832,7.184-16,16-16c8.816,0,16,7.168,16,16C240,216.832,232.816,224,224,224z"/>
	</g>
</g>
<g>
</g>
<g>
</g>
<g>
</g>
<g>
</g>
<g>
</g>
<g>
</g>
<g>
</g>
<g>
</g>
<g>
</g>
<g>
</g>
<g>
</g>
<g>
</g>
<g>
</g>
<g>
</g>
<g>
</g>
</svg>
